<?xml version="1.0" standalone="no"?>
<!DOCTYPE svg PUBLIC "-//W3C//DTD SVG 20010904//EN"
 "http://www.w3.org/TR/2001/REC-SVG-20010904/DTD/svg10.dtd">
<svg version="1.0" xmlns="http://www.w3.org/2000/svg"
 width="512.000000pt" height="512.000000pt" viewBox="0 0 512.000000 512.000000"
 preserveAspectRatio="xMidYMid meet">

<g transform="translate(0.000000,512.000000) scale(0.100000,-0.100000)"
fill="#000000" stroke="none">
<path d="M2150 4294 c-155 -19 -301 -67 -419 -138 -249 -149 -428 -397 -488
-677 -24 -113 -24 -315 0 -426 40 -189 143 -376 284 -516 220 -220 513 -325
828 -296 385 35 718 287 861 650 36 93 52 161 63 277 31 305 -77 607 -296 826
-114 114 -227 185 -408 255 -85 32 -322 58 -425 45z"/>
<path d="M1350 2269 c-314 -169 -569 -407 -752 -701 -139 -224 -247 -525 -274
-765 l-7 -63 1455 0 1455 0 -54 107 c-67 136 -93 234 -100 385 -14 296 81 535
295 746 52 51 93 94 91 96 -69 59 -280 190 -361 225 l-45 19 -84 -60 c-108
-77 -241 -142 -367 -178 -146 -42 -244 -54 -401 -47 -257 10 -485 92 -697 249
-28 21 -53 38 -55 38 -2 0 -47 -23 -99 -51z"/>
<path d="M3921 2038 c-157 -22 -305 -99 -426 -222 -95 -97 -153 -194 -191
-321 -36 -122 -39 -292 -6 -407 69 -243 225 -421 455 -516 102 -43 188 -56
331 -49 175 7 310 59 440 166 124 102 226 264 262 416 21 92 21 259 0 349 -73
307 -330 542 -640 585 -88 13 -134 12 -225 -1z m195 -282 l34 -34 0 -161 0
-161 133 0 c72 0 150 -5 172 -10 103 -23 129 -147 43 -200 -29 -18 -51 -20
-190 -20 l-158 0 0 -163 0 -163 -29 -34 c-26 -32 -34 -35 -81 -35 -46 0 -55 4
-81 33 l-29 32 0 165 0 165 -155 0 c-119 0 -163 4 -185 15 -92 47 -74 176 28
205 20 5 99 10 175 10 l137 0 0 161 0 161 34 34 c28 28 42 34 76 34 34 0 48
-6 76 -34z"/>
</g>
</svg>
